<mxfile host="app.diagrams.net" modified="2024-03-24T06:58:52.614Z" agent="Mozilla/5.0 (X11; Linux x86_64; rv:123.0) Gecko/20100101 Firefox/123.0" version="24.0.7" etag="8WwsQY1J__Xh-unrx54u" type="github">
  <diagram name="PÃ¡gina-1" id="zobZ0GVl2Qz65hiAkfpj">
    <mxGraphModel>
      <root>
        <mxCell id="0" />
        <mxCell id="1" parent="0" />
      </root>
    </mxGraphModel>
  </diagram>
</mxfile>
